<?xml version="1.0" encoding="UTF-8" standalone="no"?>
<svg
   xmlns:dc="http://purl.org/dc/elements/1.1/"
   xmlns:cc="http://creativecommons.org/ns#"
   xmlns:rdf="http://www.w3.org/1999/02/22-rdf-syntax-ns#"
   xmlns:svg="http://www.w3.org/2000/svg"
   xmlns="http://www.w3.org/2000/svg"
   xmlns:sodipodi="http://sodipodi.sourceforge.net/DTD/sodipodi-0.dtd"
   xmlns:inkscape="http://www.inkscape.org/namespaces/inkscape"
   viewBox="0 0 24 24"
   enable-background="new 0 0 24 24"
   version="1.1"
   id="svg76"
   sodipodi:docname="movie_reel.svg"
   inkscape:version="0.92.2 (unknown)">
  <metadata
     id="metadata82">
    <rdf:RDF>
      <cc:Work
         rdf:about="">
        <dc:format>image/svg+xml</dc:format>
        <dc:type
           rdf:resource="http://purl.org/dc/dcmitype/StillImage" />
      </cc:Work>
    </rdf:RDF>
  </metadata>
  <defs
     id="defs80" />
  <sodipodi:namedview
     pagecolor="#ffffff"
     bordercolor="#666666"
     borderopacity="1"
     objecttolerance="10"
     gridtolerance="10"
     guidetolerance="10"
     inkscape:pageopacity="0"
     inkscape:pageshadow="2"
     inkscape:window-width="1920"
     inkscape:window-height="1027"
     id="namedview78"
     showgrid="false"
     inkscape:zoom="34.833333"
     inkscape:cx="12"
     inkscape:cy="12"
     inkscape:window-x="0"
     inkscape:window-y="0"
     inkscape:window-maximized="1"
     inkscape:current-layer="svg76" />
  <path
     d="M 12,2 C 6.5,2 2,6.5 2,12 2,17.5 6.5,22 12,22 17.5,22 22,17.5 22,12 22,6.5 17.5,2 12,2 Z m 2.75,2.625 c 0.08574,0.0082 0.1625,0.025 0.25,0.0625 1.1,0.5 2.10625,1.2 2.90625,2 0.5,0.6 0.08125,1.5 -0.71875,1.5 H 14.59375 L 13.8125,5.8125 C 13.6375,5.2 14.149805,4.5675781 14.75,4.625 Z M 8.96875,4.71875 c 0.6179687,-0.057422 1.2,0.575 0.9375,1.1875 L 9.1875,8.1875 h -2.375 c -0.8,0 -1.31875,-0.9 -0.71875,-1.5 0.7,-0.8 1.59375,-1.475 2.59375,-1.875 C 8.775,4.775 8.8804688,4.7269531 8.96875,4.71875 Z M 12,10.5 c 0.8,0 1.5,0.7 1.5,1.5 0,0.8 -0.7,1.5 -1.5,1.5 -0.8,0 -1.5,-0.7 -1.5,-1.5 0,-0.8 0.7,-1.5 1.5,-1.5 z m 7.09375,1.1875 c 0.50625,-0.03281 1,0.4 1,1 -0.3,1.3 -0.68125,2.5 -1.28125,3.5 -0.4,0.7 -1.425,0.5125 -1.625,-0.1875 l -0.78125,-2.5 2.1875,-1.59375 c 0.15,-0.125 0.33125,-0.207812 0.5,-0.21875 z m -14.3125,0.125 C 5.0220703,11.755664 5.275,11.8125 5.5,12 l 2,1.40625 -0.8125,2.28125 c -0.2,0.7 -1.29375,0.91875 -1.59375,0.21875 -0.5,-0.9 -0.9,-1.99375 -1,-3.09375 -0.0625,-0.5 0.2861328,-0.905273 0.6875,-1 z M 22,16.59375 c -14.6666667,4.9375 -7.333333,2.46875 0,0 z m -10,0.09375 2.09375,1.5 c 0.5,0.4 0.29375,1.425 -0.40625,1.625 C 13.0875,19.9125 12.6,20 12,20 c -0.6,0 -1.2125,-0.0875 -1.8125,-0.1875 -0.8,-0.2 -0.88125,-1.225 -0.28125,-1.625 z"
     id="path74"
     inkscape:connector-curvature="0"
     sodipodi:nodetypes="ssssssccsccssccsccsssssscccccccscccccscccccsccc" />
</svg>
